<svg width="1200" height="1200" viewBox="0 0 1200 1200" fill="none" xmlns="http://www.w3.org/2000/svg">
<path d="M683.884 227.152C643.462 179.279 608.28 130.659 601.169 120.561C600.42 119.813 599.297 119.813 598.549 120.561C591.438 130.659 556.63 179.279 516.208 227.152C169.252 668.849 570.852 966.555 570.852 966.555L574.221 968.799C577.215 1014.8 584.7 1081 584.7 1081H599.672H614.643C614.643 1081 622.128 1015.18 625.123 968.799L628.491 966.181C628.865 966.555 1030.84 668.849 683.884 227.152ZM600.046 960.197C600.046 960.197 582.081 944.863 577.215 937.009V936.261L598.923 455.293C598.923 453.797 601.169 453.797 601.169 455.293L622.877 936.261V937.009C618.011 944.863 600.046 960.197 600.046 960.197Z" fill="#00ED64"/>
</svg>
